<?xml version="1.0" encoding="utf-8"?>
<!-- Generator: Adobe Illustrator 25.0.1, SVG Export Plug-In . SVG Version: 6.00 Build 0)  -->
<svg version="1.1" id="Layer_1" xmlns="http://www.w3.org/2000/svg" xmlns:xlink="http://www.w3.org/1999/xlink" x="0px" y="0px"
	 viewBox="0 0 196.25 366.38" style="enable-background:new 0 0 196.25 366.38;" xml:space="preserve">
<style type="text/css">
	.st0{fill:url(#SVGID_1_);}
	.st1{fill:#43484F;}
	.st2{fill:#1E2125;}
	.st3{fill:#131416;}
	.st4{fill:#0E0F11;}
</style>
<g>
	<g>
		<linearGradient id="SVGID_1_" gradientUnits="userSpaceOnUse" x1="0" y1="183.1875" x2="196.2538" y2="183.1875">
			<stop  offset="0" style="stop-color:#323538"/>
			<stop  offset="1" style="stop-color:#1A1D21"/>
		</linearGradient>
		<path class="st0" d="M161.38,366.38H34.88C15.61,366.38,0,350.76,0,331.5V34.88C0,15.61,15.61,0,34.88,0h126.5
			c19.26,0,34.88,15.61,34.88,34.88V331.5C196.25,350.76,180.64,366.38,161.38,366.38z"/>
		<path class="st1" d="M9.08,330.85V35.52c0-10.16,8.24-18.39,18.39-18.39h141.31c10.16,0,18.39,8.24,18.39,18.39v295.33
			c0,10.16-8.24,18.39-18.39,18.39H27.47C17.31,349.25,9.08,341.01,9.08,330.85z"/>
		<path class="st2" d="M10.27,330.77V35.61c0-8.97,7.27-16.23,16.23-16.23h143.25c8.97,0,16.23,7.27,16.23,16.23v295.16
			c0,8.97-7.27,16.23-16.23,16.23H26.5C17.54,347,10.27,339.73,10.27,330.77z"/>
		<path class="st3" d="M165.92,313.18H30.33c-1.18,0-2.14-1.81-2.14-4.03V57.23c0-2.22,0.96-4.03,2.14-4.03h135.59
			c1.18,0,2.14,1.81,2.14,4.03v251.92C168.06,311.37,167.1,313.18,165.92,313.18z M30.33,54.24c-0.88,0-1.59,1.34-1.59,2.99v251.92
			c0,1.65,0.71,2.99,1.59,2.99h135.59c0.88,0,1.59-1.34,1.59-2.99V57.23c0-1.65-0.71-2.99-1.59-2.99H30.33z"/>
		<path class="st3" d="M49.45,248.37V118c0-4.9,3.97-8.87,8.87-8.87h79.62c4.9,0,8.87,3.97,8.87,8.87v130.37
			c0,4.9-3.97,8.87-8.87,8.87H58.32C53.42,257.24,49.45,253.27,49.45,248.37z"/>
	</g>
	<g>
		<path class="st4" d="M142.25,117.58v131.23c0,3.25-2.64,5.9-5.88,5.9h-76.5c-3.23,0-5.87-2.65-5.87-5.9V117.58
			c0-3.26,2.64-5.91,5.87-5.91h76.5C139.61,111.67,142.25,114.32,142.25,117.58z"/>
		<path class="st1" d="M142.25,117.58v117.83c0,3.25-2.64,5.91-5.88,5.91h-76.5c-3.23,0-5.87-2.66-5.87-5.91V117.58
			c0-3.26,2.64-5.91,5.87-5.91h76.5C139.61,111.67,142.25,114.32,142.25,117.58z"/>
		<path class="st2" d="M142.25,117.58v114.95c0,3.25-2.64,5.9-5.88,5.9h-76.5c-3.23,0-5.87-2.65-5.87-5.9V117.58
			c0-3.26,2.64-5.91,5.87-5.91h76.5C139.61,111.67,142.25,114.32,142.25,117.58z"/>
	</g>
</g>
</svg>
